<?xml version="1.0"?>
<svg xmlns="http://www.w3.org/2000/svg" viewBox="0 0 16 16">
    <path style="line-height:normal;text-indent:0;text-align:start;text-decoration-line:none;text-decoration-style:solid;text-decoration-color:#000;text-transform:none;block-progression:tb;isolation:auto;mix-blend-mode:normal" d="M 1 1 L 1 2 L 8 2 L 8 1 L 1 1 z M 11 2 L 11 2.5 L 11 11.042969 L 8.7285156 8.7714844 L 8.0214844 9.4785156 L 11.5 12.957031 L 14.978516 9.4785156 L 14.271484 8.7714844 L 12 11.042969 L 12 2.5 L 12 2 L 11 2 z M 1 3 L 1 4 L 7 4 L 7 3 L 1 3 z M 1 5 L 1 6 L 6 6 L 6 5 L 1 5 z M 1 7 L 1 8 L 5 8 L 5 7 L 1 7 z M 1 9 L 1 10 L 4 10 L 4 9 L 1 9 z M 1 11 L 1 12 L 3 12 L 3 11 L 1 11 z M 1 13 L 1 14 L 2 14 L 2 13 L 1 13 z"/>
</svg>
